<?xml version="1.0" encoding="utf-8"?>
<!-- Generator: Adobe Illustrator 24.0.2, SVG Export Plug-In . SVG Version: 6.00 Build 0)  -->
<svg version="1.1" id="Layer_1" xmlns="http://www.w3.org/2000/svg" xmlns:xlink="http://www.w3.org/1999/xlink" x="0px" y="0px"
	 viewBox="0 0 495 130" style="enable-background:new 0 0 495 130;" xml:space="preserve">
<style type="text/css">
	.st0{fill:#FFFFFF;}
</style>
<path class="st0" d="M406,0h13.1c8.1,3,12.9,8.6,14.1,16.7c2,12.8-2,28.2-17.3,29.9c-10.1,1.1-17.3-2-21.6-9.3
	C387.2,24.9,390.4,4.5,406,0z M420.4,10.7c-4.2-4.3-11.4-4.6-15.7-0.4c-8.2,7.9-5.5,31.4,10.2,28.1
	C425.8,36.2,427.3,17.7,420.4,10.7z"/>
<path class="st0" d="M263.5,21.8c10.2,5.4,6.4,20.2-3.6,23c-1.4,0.4-6,0.6-13.5,0.7c-4.4,0-8.8,0-13.2,0c-0.3,0-0.5-0.2-0.5-0.5V1.3
	c0-0.3,0.1-0.4,0.4-0.4c11.5-0.3,19.6-0.3,24.3,0.1c10.4,0.8,14.7,13.9,6,20.2C263.2,21.4,263.2,21.6,263.5,21.8z M241.7,9.1l0,8.7
	c0,0.3,0.3,0.6,0.6,0.6l0,0l10.8,0c3.2,0,5.9-1.9,5.9-4.2v-1.5c0-2.3-2.6-4.2-5.9-4.2c0,0,0,0,0,0l-10.8,0
	C242,8.5,241.7,8.8,241.7,9.1z M241.7,26.4l0,10.8c0,0.3,0.3,0.6,0.6,0.6l11.4,0c3.4,0,6.2-2.4,6.2-5.4v-1.1c0-3-2.8-5.4-6.2-5.4
	c0,0,0,0,0,0l-11.4,0C242,25.8,241.7,26.1,241.7,26.4C241.7,26.4,241.7,26.4,241.7,26.4z"/>
<path class="st0" d="M290.9,38.7c6.9,1,9.8-3.3,9.8-9.6c0-9.2,0-18.5,0-27.7c0-0.4,0.2-0.5,0.5-0.5h8.5c0.3,0,0.5,0.2,0.5,0.5
	c0.1,7.7,0.1,15.4,0,23.1c-0.1,10.4-0.1,19.3-12.6,21.9c-4.1,0.9-8,0.8-11.6-0.1c-12-3.1-11.5-12.2-11.6-23.9
	c-0.1-7-0.1-13.9,0-20.9c0-0.3,0.2-0.5,0.5-0.5h8.5c0.4,0,0.6,0.2,0.6,0.6c0,9.6,0,19.2,0.1,28.9C284,34.9,286.1,38,290.9,38.7z"/>
<path class="st0" d="M345.9,24.5c9.1,4.8,1.4,14.9,6.9,20.2c0.2,0.2,0.2,0.5,0,0.7c-0.1,0.1-0.2,0.2-0.4,0.2l-9.7,0
	c-0.4,0-0.7-0.3-0.8-0.7c-0.3-2.6-0.6-6.6-0.8-12.1c-0.2-6.5-10.9-4.8-15.3-4.7c-0.3,0-0.5,0.2-0.5,0.5l0,16.5
	c0,0.3-0.2,0.5-0.5,0.5h-8.2c-0.3,0-0.5-0.2-0.5-0.5V1.3c0-0.3,0.2-0.5,0.5-0.5c5.6,0,11.3,0,16.8,0c5.8,0,9.8,0.6,12.1,1.7
	c7.7,3.8,9,17.1,0.2,21.4C345.4,24,345.4,24.3,345.9,24.5z M325.4,9.2v10.6c0,0.4,0.3,0.7,0.7,0.7c0,0,0,0,0,0h10.7
	c3.1,0,5.7-2.4,5.7-5.3v-1.6c0-2.9-2.6-5.3-5.7-5.3h-10.7C325.7,8.4,325.4,8.8,325.4,9.2C325.4,9.2,325.4,9.2,325.4,9.2z"/>
<path class="st0" d="M367.1,8.8l-12.7,0c-0.2,0-0.4-0.2-0.4-0.4c0,0,0,0,0,0V1.1c0-0.2,0.2-0.4,0.4-0.4l0,0h35.5
	c0.2,0,0.4,0.2,0.4,0.4c0,0,0,0,0,0v7.2c0,0.2-0.2,0.4-0.4,0.4l0,0h-12.6c-0.2,0-0.4,0.2-0.4,0.4c0,0,0,0,0,0v36
	c0,0.2-0.2,0.4-0.4,0.4l0,0h-8.7c-0.2,0-0.4-0.2-0.4-0.4c0,0,0,0,0,0v-36C367.5,8.9,367.3,8.8,367.1,8.8L367.1,8.8z"/>
<path class="st0" d="M465.2,31V1.3c0-0.3,0.2-0.5,0.5-0.5h7.8c0.3,0,0.5,0.2,0.5,0.5v43.7c0,0.4-0.2,0.6-0.6,0.6h-8.3
	c-0.3,0-0.6-0.1-0.8-0.4l-17.5-30.4c-0.1-0.1-0.2-0.1-0.3-0.1c-0.1,0-0.1,0.1-0.1,0.2l0,30.2c0,0.3-0.2,0.5-0.5,0.5h-7.8
	c-0.3,0-0.5-0.2-0.5-0.5V1.3c0-0.3,0.2-0.5,0.5-0.5h8.8c0.4,0,0.6,0.2,0.8,0.5l17,29.8C465.1,31.6,465.2,31.5,465.2,31z"/>
<path class="st0" d="M113.3,40.2L34,129.1c-0.1,0.1-0.2,0.1-0.2,0.1H0.7c-0.2,0-0.3-0.1-0.3-0.3c0-0.1,0-0.2,0.1-0.2l26.3-29.4
	c0.1-0.1,0.1-0.1,0.1-0.2V25.6c0-0.2,0.1-0.3,0.3-0.3h29.6c0.2,0,0.3,0.1,0.3,0.3v0v38.9c0,0.2,0.2,0.3,0.3,0.3c0.1,0,0.2,0,0.2-0.1
	l55.8-62.5c0.1-0.1,0.3-0.2,0.5,0c0,0,0,0,0,0l111.1,126.5c0.1,0.1,0.1,0.3,0,0.5c-0.1,0.1-0.1,0.1-0.2,0.1h-32.6
	c-0.1,0-0.2,0-0.2-0.1l-78.1-88.9C113.7,40.1,113.5,40.1,113.3,40.2C113.3,40.2,113.3,40.2,113.3,40.2z"/>
<path class="st0" d="M273.3,67.8c2.4-11,10.5-17.5,21.9-16.7c12.4,0.8,19.2,7.8,20.3,20.9c1.1,11.9-4.6,24.6-17.6,26.2
	C278.5,100.7,269.6,84.8,273.3,67.8z M293.7,59.2c-13.8,0.9-15,22-6.7,28.9c5.2,4.4,14.4,2.5,17.3-3.7
	C308.1,76,306.8,58.3,293.7,59.2z"/>
<path class="st0" d="M360.3,69c2.1,11.9-1.8,25.7-15,28.8c-4.6,1.1-9.1,1-13.5-0.4c-12.9-3.9-15.7-19.8-12.8-31.2
	c2.8-11.2,12.4-16.1,23.4-15C352.5,52.3,358.5,58.9,360.3,69z M340.8,90.3c15.7-1.7,14-34.6-3.7-31.1
	C322.7,62.1,323.6,92.2,340.8,90.3z"/>
<path class="st0" d="M495,73.2v24l-5.7,0c-0.4,0-0.6-0.2-0.7-0.6l-0.7-4.1c-0.1-0.5-0.3-0.5-0.6-0.2c-4.8,5.2-10.8,7.1-18,5.5
	c-18-3.9-20.5-29.4-9.2-40.8c9.8-9.9,32.4-7.2,34.6,8.9c0,0.4-0.1,0.5-0.5,0.5h-8c-0.4,0-0.6-0.2-0.7-0.5c-2.2-5.4-6.2-7.7-12.1-6.8
	c-12,1.9-13.6,21.5-5.9,28.5c6.2,5.5,17.3,2.6,18.9-6.5c0.1-0.3-0.1-0.5-0.4-0.5h-9.1c-0.4,0-0.6-0.2-0.6-0.6v-6.4
	c0-0.3,0.2-0.5,0.5-0.5H495z"/>
<path class="st0" d="M262.5,76.1c6.4,3.7,4.8,11.2,5,17.2c0,0.3,0.1,0.6,0.3,0.8l1.6,2.2c0.2,0.2,0.1,0.5-0.1,0.7
	c-0.1,0.1-0.2,0.1-0.3,0.1h-9.7c-0.4,0-0.6-0.2-0.6-0.5c-0.6-3.5-0.9-7-0.9-10.5c-0.1-3.7-1-6.2-5-6.4c-3.4-0.1-6.8-0.1-10.3,0
	c-0.3,0-0.5,0.2-0.5,0.5v16.5c0,0.3-0.2,0.5-0.5,0.5l-8.2,0c-0.4,0-0.6-0.2-0.6-0.6V53c0-0.3,0.2-0.5,0.5-0.5
	c10.5-0.1,17.4-0.1,20.7-0.1c9.4,0.1,14.2,4.4,14.5,12.7c0.1,4.6-1.8,8.4-5.9,10.4C262.1,75.7,262.1,75.9,262.5,76.1z M242,60.7
	l0,11c0,0.3,0.2,0.5,0.5,0.5h0l10.9,0c3.1,0,5.7-2.3,5.7-5.2c0,0,0,0,0,0v-1.5c0-2.9-2.5-5.2-5.7-5.3l-10.9,0
	C242.2,60.3,242,60.5,242,60.7z"/>
<path class="st0" d="M374.1,79l0,17.8c0,0.3-0.2,0.5-0.5,0.5l0,0h-8.4c-0.3,0-0.5-0.2-0.5-0.5l0,0V53c0-0.3,0.2-0.5,0.5-0.5h31
	c0.3,0,0.5,0.2,0.5,0.5v7c0,0.3-0.2,0.5-0.5,0.5h-21.6c-0.3,0-0.5,0.2-0.5,0.5c0,0,0,0,0,0l0,9.2c0,0.3,0.2,0.5,0.5,0.5h18.8
	c0.3,0,0.5,0.2,0.5,0.5l0,0V78c0,0.3-0.2,0.5-0.5,0.5l0,0h-18.8C374.3,78.5,374.1,78.7,374.1,79L374.1,79z"/>
<path class="st0" d="M399.2,52.5h8.7c0.2,0,0.3,0.1,0.3,0.3v44c0,0.2-0.1,0.3-0.3,0.3h-8.7c-0.2,0-0.3-0.1-0.3-0.3v-44
	C398.9,52.6,399,52.5,399.2,52.5z"/>
<path class="st0" d="M441.2,82.5l0-29.5c0-0.3,0.2-0.5,0.5-0.5h7.8c0.3,0,0.5,0.2,0.5,0.5v43.6c0,0.4-0.2,0.6-0.6,0.6H441
	c-0.3,0-0.6-0.1-0.7-0.4L423,66.5c-0.3-0.6-0.5-0.5-0.5,0.1l0,30c0,0.4-0.2,0.6-0.6,0.6h-7.7c-0.3,0-0.5-0.2-0.5-0.5V53
	c0-0.3,0.2-0.5,0.5-0.5h8.8c0.3,0,0.6,0.2,0.8,0.5l16.9,29.6C441,83.2,441.2,83.2,441.2,82.5z"/>
<path class="st0" d="M236.1,107.9v20.8c0,0.4-0.2,0.5-0.5,0.5h-1.2c-0.4,0-0.6-0.2-0.6-0.6v-24.1c0-0.3,0.2-0.5,0.5-0.5h2.6
	c0.4,0,0.7,0.2,0.8,0.6l7.7,20.9c0.1,0.1,0.2,0.2,0.4,0.2c0.1,0,0.1-0.1,0.2-0.2l7.7-21c0.1-0.3,0.4-0.5,0.7-0.5h2.7
	c0.3,0,0.5,0.2,0.5,0.5v24.1c0,0.4-0.2,0.6-0.6,0.6l-1.3,0c-0.4,0-0.6-0.2-0.6-0.6l0-20.3c0-1.1-0.2-1.1-0.6-0.1l-7.3,20
	c-0.3,0.8-1.2,1.3-2.1,1c-0.4-0.2-0.8-0.5-1-1l-7.5-20.4C236.3,107.1,236.1,107.1,236.1,107.9z"/>
<path class="st0" d="M308.8,113c4.2-4.1,11.4-3.2,11.6,3.8c0.1,4,0.1,8,0.2,12c0,0.4-0.2,0.5-0.5,0.5l-1,0c-0.4,0-0.6-0.2-0.6-0.6
	c0-3.7,0-7.3,0-11c-0.1-3.2-1.3-5.5-4.8-5.1c-4.4,0.5-5.2,3.6-5.2,7.7c0,2.8,0,5.6,0,8.5c0,0.3-0.2,0.5-0.5,0.5l-1.1,0
	c-0.4,0-0.6-0.2-0.6-0.6v-24.1c0-0.4,0.2-0.6,0.6-0.6h1.1c0.3,0,0.5,0.2,0.5,0.5l0,8.2C308.2,113.3,308.4,113.3,308.8,113z"/>
<path class="st0" d="M394,127.1l12.7,0c0.2,0,0.4,0.2,0.4,0.4c0,0,0,0,0,0l0,1.3c0,0.2-0.2,0.4-0.4,0.4h-15.1
	c-0.2,0-0.4-0.2-0.4-0.4v-24.4c0-0.2,0.2-0.4,0.4-0.4l1.7,0c0.2,0,0.4,0.2,0.4,0.4c0,0,0,0,0,0l0,22.3
	C393.6,127,393.8,127.1,394,127.1z"/>
<path class="st0" d="M430.2,126.8c-3.7,3.4-7.4,3.8-11.1,1.1c-2.9-2.1-3-5.1-3-8.4c0-7.9,8.2-12.2,14-6.3c0.3,0.3,0.5,0.3,0.5-0.2
	l0-8.4c0-0.4,0.2-0.6,0.6-0.6l1,0c0.4,0,0.6,0.2,0.6,0.6v23.6c0,0.6-0.5,1.1-1.1,1.1c-0.6,0-1-0.4-1.1-1c0-0.3,0-0.8,0.1-1.3
	C430.6,126.6,430.5,126.6,430.2,126.8z M424.4,127.8c3.4,0,6.2-3.4,6.2-7.7s-2.8-7.7-6.2-7.7c-3.4,0-6.2,3.4-6.2,7.7c0,0,0,0,0,0
	C418.1,124.4,420.9,127.8,424.4,127.8L424.4,127.8z"/>
<path class="st0" d="M362.5,111l3,0.2c0.4,0,0.8,0.3,0.8,0.8c0,0.4-0.3,0.8-0.8,0.8l-3.1,0.3c-0.2,0-0.4,0.2-0.4,0.4l0,13.5
	c0,0.4,0.3,0.7,0.7,0.7l2.4,0.1c0.3,0,0.4,0.2,0.4,0.4l0,0.5c0,0.7-0.6,1.2-1.2,1.2c0,0,0,0,0,0c-3-0.1-4.5-1.3-4.5-3.6
	c0-4.3,0.1-8.5,0.1-12.8c0-0.4-0.2-0.6-0.6-0.6l-1.3,0c-0.5,0-0.9-0.4-0.9-0.9c0-0.5,0.4-0.9,0.9-0.9l0,0l1.5-0.1
	c0.2,0,0.4-0.2,0.4-0.5l0-4.1c0-0.3,0.1-0.4,0.4-0.4l1.2,0c0.3,0,0.5,0.2,0.5,0.5l0,4C362,110.7,362.2,111,362.5,111z"/>
<path class="st0" d="M409.3,110.5l0-4c0-0.3,0.2-0.5,0.5-0.5l1.2,0c0.3,0,0.5,0.2,0.5,0.5l0,4c0,0.4,0.2,0.5,0.5,0.6l2.3,0
	c0.5,0,0.7,0.2,0.7,0.7l-0.1,0.5c0,0.4-0.2,0.5-0.6,0.5l-2.3,0c-0.4,0-0.5,0.2-0.5,0.5c0,4.1,0,8.1,0,12.1c0,2,1,2.8,2.9,2.1
	c0.4-0.1,0.6,0,0.6,0.4l0,0.4c0,0.4-0.2,0.7-0.5,0.9c-3.3,1.4-5.2-0.3-5.2-3.7c0-4.1,0-8.2,0-12.2c0-0.3-0.2-0.5-0.5-0.5l-1.4,0.1
	c-0.4,0-0.7-0.2-0.7-0.6l0-0.4c0-0.4,0.3-0.8,0.7-0.8c0,0,0,0,0.1,0l1.3,0C409.1,111,409.3,110.9,409.3,110.5z"/>
<path class="st0" d="M262.3,121.2c0.1,6.9,8.3,9.4,11.5,2.7c0.2-0.5,0.9-0.7,1.4-0.5c0.4,0.2,0.7,0.7,0.6,1.1
	c-0.7,3-2.8,4.7-6.4,5.1c-13,1.4-11.7-19.6-1-19.1c5.3,0.3,8.2,4.5,7.8,9.6c0,0.4-0.2,0.5-0.6,0.5h-12.8
	C262.4,120.6,262.3,120.8,262.3,121.2z M262.8,118.9l10.7-0.2c0.3,0,0.5-0.2,0.5-0.5c0,0,0,0,0,0l0-0.2c-0.1-3.1-2.6-5.6-5.8-5.6
	h-0.3c-3.1,0.1-5.6,2.6-5.6,5.8c0,0,0,0,0,0v0.1C262.3,118.7,262.5,118.9,262.8,118.9C262.8,118.9,262.8,118.9,262.8,118.9z"/>
<path class="st0" d="M281.1,113.6c1-2,2.7-3,4.9-3c0.4,0,0.6,0.2,0.6,0.6l0.1,1.1c0,0.4-0.2,0.7-0.6,0.7c-7,0.4-5.6,9.7-5.4,15.7
	c0,0.4-0.2,0.6-0.5,0.6l-1.1,0c-0.4,0-0.5-0.2-0.5-0.5v-16.9c0-0.4,0.2-0.7,0.7-0.7l0.9,0c0.3,0,0.6,0.3,0.6,0.6c0,0,0,0,0,0.1
	l-0.1,1.8C280.7,114.2,280.8,114.3,281.1,113.6z"/>
<path class="st0" d="M301.1,116.5c-1-3.2-4.1-4.8-7.2-3.6c-4.5,1.8-4.9,8.2-3,12c2.3,4.7,9.1,3.6,10.4-1.4c0.1-0.4,0.3-0.5,0.7-0.5
	l1,0c0.4,0,0.5,0.2,0.5,0.6c-1,5.7-7.4,8-11.9,5.2c-7.8-4.7-4.3-20.4,6.6-17.8c2.8,0.7,4.5,2.4,5,5.3c0.1,0.4-0.1,0.6-0.5,0.6
	l-1,0.1C301.5,117,301.2,116.8,301.1,116.5z"/>
<path class="st0" d="M335.2,127.3c-2.5,2-5.2,2.7-8.2,2.2c-4.3-0.8-5.6-6.6-2.1-9.1c2.2-1.6,6.7-1.8,9.7-2.3c0.3,0,0.5-0.2,0.6-0.5
	c2.3-6-7.4-7.3-9.4-1.5c-0.2,0.5-0.8,0.8-1.3,0.6c-0.4-0.2-0.7-0.6-0.7-1c0.4-6.4,13.8-7.8,13.9,0.3c0,3.6,0.1,7.3,0.1,10.9
	c0,0.4,0.2,0.6,0.7,0.6l0.8-0.1c0.4,0,0.8,0.3,0.9,0.7c0,0.2,0,0.5-0.2,0.6c-1.2,1.4-3.8,0.7-4.2-1.3
	C335.7,127.1,335.5,127.1,335.2,127.3z M335.6,120.6c-0.1-0.5-0.3-0.6-0.8-0.6c-2.2,0.4-6.3,0.4-8.2,1.7c-3.7,2.5-0.3,6.5,3.4,6
	C334.2,127.2,336.1,124.8,335.6,120.6z"/>
<path class="st0" d="M344.2,113c0.6-0.4,1.2-1.2,1.8-1.5c4.8-2.3,9.8-0.2,9.8,5.4c0,3.9,0,7.9,0,11.7c0,0.4-0.2,0.6-0.6,0.6l-1,0
	c-0.4,0-0.6-0.2-0.6-0.6c0.1-6.4,0.1-10.6,0-12.6c-0.3-4.6-7-4.2-8.9-1.1c-1.8,2.8-1.1,10.2-1.1,13.7c0,0.4-0.2,0.6-0.6,0.6l-0.9,0
	c-0.3,0-0.6-0.3-0.6-0.6v-17c0-0.4,0.2-0.6,0.6-0.6l1.1,0c0.3,0,0.6,0.3,0.6,0.6c0,0,0,0.1,0,0.1l-0.1,0.9
	C343.5,113.2,343.7,113.3,344.2,113z"/>
<path class="st0" d="M377.3,122.4c-1.8-1.6-6.9-1.9-8.6-2.8c-4-2.2-1.8-8.1,2.2-8.9c3.7-0.7,8.3,0.2,8.9,4.7c0.1,0.5-0.3,1-0.8,1.1
	c-0.5,0.1-0.9-0.2-1.1-0.6c-1.2-3.2-3.5-4.1-7.1-2.8c-2.6,1-2.4,4.1,0.2,5c2.6,0.9,6,1.2,8.1,3c2.9,2.5,1.3,6.6-1.8,7.9
	c-4.3,1.8-10.1,0.5-11-4.9c0-0.3,0.1-0.5,0.4-0.6c0,0,0.1,0,0.1,0l1,0c0.4,0,0.6,0.2,0.8,0.6C370.8,131.3,381.7,126.5,377.3,122.4z"
	/>
</svg>
